<?xml version="1.0" encoding="UTF-8"?><svg id="Layer_1" xmlns="http://www.w3.org/2000/svg" viewBox="0 0 428.55 116.09" fill="white"><path d="M206.32,19.66c-7.16,1.65-5.28,13.12,2.69,12.23,8.99-1.01,7.13-14.49-2.69-12.23Z"/><path d="M319.71,19.67c-7.32,1.49-5.49,13.13,2.67,12.22s7.66-14.32-2.67-12.22Z"/><path d="M164.94,20.12h-10.68v60.55h10.68v-27.6c0-.69,4.51-5.37,5.37-5.91,2.33-1.47,6.49-1.28,8.83.02,1.03.57,4.2,4.37,4.2,5.29v28.2h10.68v-29.98c0-.49-1.16-4.3-1.48-5.05-3.44-7.98-14.08-10.15-21.47-6.63l-6.13,3.67v-22.56Z"/><path d="M281.28,20.12h-10.68v60.55h10.68v-18.1c0-.24-1.53-1.04.29-.89,2.6,1.8,14.79,18.99,16.03,18.99h11.87c.24,0,1.04,1.53.89-.29l-18.95-22.48,18.36-19.97h-12.17l-16.03,16.62c-1.82.15-.29-.64-.29-.89V20.12Z"/><polygon points="104.4 30.21 121.02 30.21 121.02 80.67 132.3 80.67 132.3 30.21 149.51 30.21 148.24 20.8 105.58 20.71 104.4 30.21"/><path d="M261.7,80.67v-30.57c0-2.92-3.49-8.36-5.97-10.05-7.18-4.89-16.15-2.78-21.87,2.83-1.95,1.91-.86-3.6-3.01-4.66-1.88-.93-6.09.07-8.32-.29v42.74h10.68v-28.2c0-.85,4.65-5.03,5.72-5.56,3.03-1.51,7.66-.65,10.01,1.7.49.49,2.67,4.19,2.67,4.45v27.6h10.09Z"/><path d="M375.07,80.67v-29.38c0-.21-.73-3.33-.89-3.86-3.69-12.41-20.27-12.59-28.19-4.15-.3-7.19-4.7-5.16-10.1-5.34v42.74h10.09v-27.6c0-.68,3.37-4.13,4.15-4.75,4.07-3.26,9.27-3.04,12.47,1.19.33.44,1.78,2.79,1.78,2.97v28.2h10.68Z"/><rect x="202.93" y="37.93" width="10.68" height="42.74"/><rect x="316.31" y="37.93" width="10.68" height="42.74"/><polygon points="27.02 61.12 43.24 59.08 32.67 36.24 27.02 61.12"/><path d="M80.57,10.94C58.58-4.93,19.35,5.38,14.45,32.61c-.99,5.5,1.88,9.2-1.48,14.57-2.32,3.7-5.82,7.72-7.96,11.57-1.58,2.85-.72,5.33,2.39,6.64,1.13.48,2.28.47,3.42,1.15,1.4.83,1.81,1.8,1.89,2.84l9.68-47.8,15.85-1.9,30.98,62.81c.61,1.59-1.16.38-1.29.4l-12.16,1.53-6.65-13.74-25.14,2.87-3.3,15.61c-.34.32-.76-.24-.87-.22l-4.6.58c.8,4.99,4.75,6.81,10.26,6.73,3.31-.04,9.99-1.73,12.58.3,3.6,2.82,4.69,11.3,5.99,15.37l40.88-9.42c-2.72-7.04-4.43-14.07-4.12-21.22l-7.19.9-8.29-65.95,12.97-1.63,6.49,51.63c1.5-2.95,3.25-5.9,4.45-8.96,6.33-16.13,7.14-34.93-8.65-46.32Z"/><path d="M423.71,40.62c0-.92.63-1.77.62-2.69h-8.61c-.91,0-1.42,3.74-2.38,4.15-5.47-6.78-17.14-5.53-23.64-.49-12.1,9.38-9.64,36.72,7.29,39.4,7.34,1.16,12.68-.37,17.83-5.67,1.47,16.15-15.44,20.41-26.93,11.92-2.07,2.4-5.31,6.16-2.11,8.52,11.69,8.62,35.69,4.64,37.9-11.88,1.88-14.08.12-29.16.02-43.26ZM401.64,72.8c-10.13-1.25-12.23-16.9-6.19-23.39.9-.96,3.34-2.42,4.65-2.77,18.83-5,18.89,28.29,1.53,26.15Z"/></svg>