<?xml version="1.0" encoding="UTF-8"?>
<svg id="Layer_2" xmlns="http://www.w3.org/2000/svg" version="1.1" viewBox="0 0 89.2 108.5">
  <!-- Generator: Adobe Illustrator 29.1.0, SVG Export Plug-In . SVG Version: 2.1.0 Build 142)  -->
  <g id="Layer_1-2">
    <g>
      <polygon points="22.8 57.7 39 55.6 28.4 32.8 22.8 57.7"/>
      <path d="M76.3,7.5C54.3-8.4,15.1,1.9,10.2,29.2c-1,5.5,1.9,9.2-1.5,14.6-2.3,3.7-5.8,7.7-8,11.6C-.9,58.2,0,60.7,3.1,62c1.1.5,2.3.5,3.4,1.2,1.4.8,1.8,1.8,1.9,2.8l9.7-47.8,15.9-1.9,31,62.8c.6,1.6-1.2.4-1.3.4l-12.2,1.5-6.7-13.7-25.1,2.9-3.3,15.6c-.3.3-.8-.2-.9-.2l-4.6.6c.8,5,4.8,6.8,10.3,6.7,3.3,0,10-1.7,12.6.3,3.6,2.8,4.7,11.3,6,15.4l40.9-9.4c-2.7-7-4.4-14.1-4.1-21.2l-7.2.9L61.1,12.8l13-1.6,6.5,51.6c1.5-3,3.2-5.9,4.4-9,6.3-16.1,7.1-34.9-8.7-46.3Z"/>
    </g>
  </g>
</svg>